# xmcd
#
# Track frame offsets:
#	150
#	14489
#	29281
#	43517
#	54241
#	68028
#	77901
#	88049
#	98305
#	108548
#	119033
#	129978
#	143101
#	156521
#	169902
#	183392
#	196936
#	209428
#	223614
#	237500
#	251814
#	266329
#	289504
#	303008
#	317838
#
# Disc length: 4438 seconds
#
# Revision: 1
# Processed by: cddbd v1.5.2PL0 Copyright (c) Steve Scherf et al.
# Submitted via: audiograbber 1.83.01
#
DISCID=65115419
DTITLE=Sarah Vaughan - Essence of Sarah Vaughan Disc 2
DYEAR=1900
DGENRE=
TTITLE0=It's Magic
TTITLE1=Black Coffee
TTITLE2=Tenderly
TTITLE3=I'm Gonna Sit Right Down
TTITLE4=Thinking of You
TTITLE5=Come Along with Me
TTITLE6=Johnny Be Smart
TTITLE7=Hey Naughty Papa
TTITLE8=Waltzing Down the Aisle
TTITLE9=Honey
TTITLE10=No Smokes
TTITLE11=Don't Be Afraid
TTITLE12=These Things I Offer You For a Lifetime
TTITLE13=Sinner or Saint
TTITLE14=I'm Crazy to Love You
TTITLE15=Just Friends
TTITLE16=I Can Make You Love Me
TTITLE17=While You Are Gone
TTITLE18=Once in a While
TTITLE19=You're Mine, You
TTITLE20=Our Vey Own
TTITLE21=I'm Glad There is You
TTITLE22=My Tormented Heart
TTITLE23=I'll Know
TTITLE24=The Nearness of You
EXTD=
EXTT0=
EXTT1=
EXTT2=
EXTT3=
EXTT4=
EXTT5=
EXTT6=
EXTT7=
EXTT8=
EXTT9=
EXTT10=
EXTT11=
EXTT12=
EXTT13=
EXTT14=
EXTT15=
EXTT16=
EXTT17=
EXTT18=
EXTT19=
EXTT20=
EXTT21=
EXTT22=
EXTT23=
EXTT24=
PLAYORDER=
